<?xml version="1.0" standalone="no"?>
<!DOCTYPE svg PUBLIC "-//W3C//DTD SVG 20010904//EN"
 "http://www.w3.org/TR/2001/REC-SVG-20010904/DTD/svg10.dtd">
<svg version="1.0" xmlns="http://www.w3.org/2000/svg"
 width="1280.000000pt" height="1137.000000pt" viewBox="0 0 1280.000000 1137.000000"
 preserveAspectRatio="xMidYMid meet">
<metadata>
Created by potrace 1.15, written by Peter Selinger 2001-2017
</metadata>
<g transform="translate(0.000000,1137.000000) scale(0.100000,-0.100000)"
fill="#000000" stroke="none">
<path d="M5605 11357 c-16 -13 -21 -31 -26 -111 -3 -53 -12 -102 -19 -111 -18
-21 -52 -19 -120 10 -97 41 -150 30 -150 -30 0 -26 11 -46 50 -91 51 -58 68
-103 56 -149 -5 -19 -13 -25 -34 -25 -15 0 -36 7 -46 15 -31 23 -52 18 -74
-19 -19 -32 -40 -48 -169 -129 -23 -15 -50 -39 -60 -53 -17 -26 -16 -27 8 -46
13 -11 59 -40 101 -65 98 -56 141 -104 158 -173 l13 -53 -40 -38 c-62 -57
-141 -69 -209 -31 -16 9 -24 4 -52 -29 -19 -22 -56 -51 -82 -64 -45 -23 -51
-23 -77 -10 -63 33 -115 7 -194 -96 -55 -72 -92 -109 -111 -109 -16 0 -7 62
17 122 34 85 33 95 -13 103 -54 9 -100 39 -108 72 -4 15 -2 50 3 77 6 28 9 53
7 55 -10 11 -80 -14 -126 -46 -54 -38 -117 -65 -130 -56 -5 2 -8 24 -8 47 0
49 -23 121 -46 148 -22 23 -79 41 -109 34 -13 -3 -50 -33 -83 -67 -50 -50 -65
-60 -89 -57 -23 2 -33 13 -55 60 -42 87 -97 92 -143 14 -14 -24 -34 -51 -46
-62 -17 -16 -22 -16 -29 -4 -6 8 -10 22 -10 30 0 25 -30 60 -50 60 -11 0 -26
-12 -34 -27 -22 -43 -64 -77 -152 -122 -45 -23 -91 -53 -104 -66 -20 -21 -21
-28 -11 -56 17 -49 13 -93 -10 -123 l-20 -26 -175 0 -174 0 0 -40 c0 -53 -18
-93 -69 -158 -54 -68 -71 -109 -71 -171 0 -45 3 -52 28 -65 58 -30 132 -139
132 -194 0 -20 -12 -45 -35 -74 -52 -65 -68 -99 -69 -147 -1 -36 3 -46 24 -60
84 -53 114 -117 115 -241 l1 -95 146 -75 c79 -41 161 -87 181 -103 l36 -27
-20 -45 c-24 -55 -17 -89 34 -148 l32 -38 160 -4 c152 -4 162 -3 201 19 l42
24 21 -29 c30 -41 70 -58 175 -78 l91 -16 3 -109 c3 -130 -3 -143 -56 -120
-62 26 -163 29 -254 9 -52 -12 -82 -24 -85 -34 -19 -62 -48 -105 -128 -185
l-90 -93 -73 23 c-40 12 -91 34 -112 48 -39 26 -40 28 -40 84 l0 57 -70 65
c-65 61 -70 69 -70 107 l0 40 -62 19 c-84 25 -239 26 -285 1 -41 -22 -53 -21
-53 3 0 23 -12 26 -125 35 -70 5 -197 27 -247 41 -10 3 -26 24 -37 47 -45 100
-142 156 -341 195 -125 25 -130 25 -181 9 -65 -21 -124 -21 -249 -1 l-98 17
-30 -24 c-52 -42 -48 -104 10 -174 42 -51 42 -62 -2 -69 -56 -9 -104 -56 -142
-137 -17 -38 -35 -69 -39 -69 -3 0 -29 23 -57 51 -32 34 -55 50 -65 46 -9 -3
-25 -33 -38 -66 -26 -73 -39 -87 -69 -71 -12 7 -43 12 -68 13 -54 0 -71 -16
-102 -102 -12 -32 -32 -71 -45 -87 l-23 -29 -66 33 c-69 33 -138 42 -153 20
-4 -7 -10 -44 -13 -83 l-5 -70 -53 -1 c-35 -1 -57 -6 -63 -15 -19 -30 -9 -95
24 -164 64 -134 55 -160 -37 -112 -28 15 -65 27 -83 27 -26 0 -33 -5 -42 -30
-6 -17 -35 -66 -64 -108 -65 -91 -92 -144 -101 -193 -11 -62 14 -68 165 -43
l35 6 0 -64 c1 -82 16 -109 109 -192 77 -70 111 -117 101 -142 -3 -8 -30 -25
-61 -38 -70 -32 -82 -57 -65 -141 34 -169 18 -195 -80 -129 -39 27 -100 33
-100 10 0 -8 5 -27 11 -43 6 -15 12 -91 14 -168 8 -244 8 -245 123 -225 149
25 135 26 156 -17 16 -31 21 -72 27 -223 4 -102 8 -186 8 -187 1 -2 13 -3 28
-3 20 0 41 -14 78 -54 73 -78 123 -97 145 -56 6 11 24 27 41 35 28 15 36 14
106 -5 42 -11 77 -19 78 -18 1 2 11 21 21 43 24 54 116 144 186 184 55 31 58
31 87 17 35 -19 45 -53 33 -118 -9 -47 -9 -47 27 -71 20 -14 64 -65 99 -118
77 -114 114 -143 186 -144 48 0 52 2 67 32 34 67 59 82 59 34 0 -17 11 -44 27
-63 15 -18 28 -34 29 -36 6 -9 63 31 99 68 56 59 86 72 155 69 37 -2 65 2 75
11 21 17 42 96 55 205 12 101 25 151 46 180 14 19 17 17 74 -43 35 -36 68 -62
80 -62 26 0 26 0 -10 -60 -30 -52 -49 -113 -50 -161 0 -22 8 -30 51 -48 28
-12 99 -28 157 -36 59 -8 126 -21 149 -29 l41 -14 32 50 c42 64 112 119 217
169 47 22 86 39 88 37 1 -2 8 -13 14 -25 6 -13 29 -32 50 -43 21 -10 41 -26
45 -35 3 -9 -8 -41 -25 -73 -16 -31 -46 -108 -66 -172 -20 -63 -37 -116 -38
-118 -1 -1 -19 5 -39 13 -68 28 -91 3 -130 -141 -49 -183 -45 -181 -183 -110
-114 58 -248 140 -348 213 -32 24 -66 43 -75 43 -8 0 -44 -18 -80 -40 -56 -34
-73 -40 -122 -40 -56 0 -56 0 -69 -37 -9 -30 -9 -59 1 -145 13 -109 10 -146
-16 -185 -13 -21 -22 -23 -117 -23 -176 0 -288 -28 -387 -96 l-50 -35 -37 26
c-55 37 -105 34 -171 -11 -129 -86 -167 -157 -137 -254 26 -88 25 -93 -18
-101 -63 -10 -64 -16 -33 -145 28 -113 30 -172 11 -239 -4 -15 2 -25 25 -40
51 -34 63 -73 55 -177 l-7 -89 49 6 c40 6 53 3 73 -13 21 -17 25 -30 28 -93 2
-41 8 -78 12 -82 15 -16 68 22 100 73 30 46 72 80 100 80 6 0 10 -34 10 -90
l0 -90 28 0 c16 0 61 21 107 50 44 27 84 50 90 50 6 0 19 -14 29 -30 20 -34
78 -76 130 -94 l34 -12 -39 -58 c-21 -32 -39 -66 -39 -76 0 -25 77 -162 103
-182 12 -10 40 -18 61 -18 35 0 46 7 98 60 32 33 62 60 67 60 5 0 17 3 26 7
21 8 19 -1 -37 -146 -28 -74 -39 -118 -39 -157 0 -85 5 -94 57 -94 40 0 51 5
98 50 29 28 55 50 59 50 3 0 8 -18 12 -40 8 -49 44 -94 94 -120 l37 -18 50 27
c27 15 76 44 108 64 76 47 96 47 133 0 24 -29 36 -36 64 -35 35 1 46 10 130
113 l36 44 28 -27 c35 -35 56 -35 108 1 77 52 107 64 153 57 l42 -5 47 89 c25
50 47 90 49 90 2 0 34 -14 70 -31 60 -28 74 -31 141 -27 41 2 75 1 75 -3 0
-10 -72 -92 -171 -194 -53 -55 -106 -119 -118 -142 -29 -58 -51 -147 -51 -208
l0 -50 87 -60 c64 -44 92 -71 107 -101 l21 -41 80 1 c74 1 84 -1 132 -32 l52
-33 77 51 76 52 33 -36 c29 -32 53 -42 93 -37 7 1 29 13 49 27 47 31 93 31
210 -3 113 -32 122 -30 194 62 58 74 90 95 149 95 38 0 40 -1 40 -31 0 -17 12
-58 27 -91 25 -57 28 -60 57 -54 65 13 147 50 187 84 56 48 79 100 79 185 0
58 2 67 19 67 10 0 32 13 49 29 37 36 66 32 81 -12 24 -66 69 -83 142 -53 54
22 88 54 151 140 67 91 68 102 27 211 -40 106 -128 192 -301 292 -43 25 -78
48 -78 53 0 4 19 10 43 14 23 3 103 15 177 26 208 31 291 67 347 151 l26 40
22 -21 c27 -25 78 -26 189 -3 110 22 131 16 160 -50 40 -90 50 -154 49 -297
-1 -139 -6 -178 -68 -510 -36 -190 -37 -200 -32 -375 5 -189 16 -262 97 -685
55 -290 71 -415 71 -575 0 -239 -23 -301 -180 -488 -54 -65 -116 -150 -136
-189 -34 -64 -36 -72 -22 -86 14 -13 22 -14 55 -4 22 7 50 12 63 12 20 1 42
30 138 190 216 360 240 498 155 910 -33 163 -38 203 -39 340 -2 147 -4 160
-32 235 -47 124 -58 199 -57 390 1 135 9 226 38 440 43 321 53 467 37 592 -13
105 -48 217 -85 273 l-25 38 52 12 c129 30 244 111 330 233 24 34 78 124 121
199 l77 137 -16 31 c-9 17 -25 73 -36 123 -25 115 -54 176 -97 202 -31 19 -33
22 -28 67 3 26 2 86 -1 132 -6 82 -7 85 -35 97 -37 15 -124 101 -168 167 l-35
51 -66 1 c-87 0 -151 -32 -225 -113 -30 -34 -65 -65 -76 -70 -13 -4 -46 1 -90
15 l-70 23 -36 -41 c-21 -23 -59 -67 -86 -98 -27 -32 -60 -63 -74 -69 -22 -10
-27 -8 -53 21 -34 38 -38 84 -14 172 20 75 20 170 0 170 -26 0 -46 46 -60 137
-7 48 -16 96 -20 106 -11 27 -57 21 -100 -13 -44 -35 -61 -38 -70 -10 -4 11
-19 28 -33 37 -15 9 -37 25 -49 36 -21 19 -22 19 -87 -3 -123 -40 -223 -123
-314 -257 -38 -57 -41 -63 -22 -63 43 0 94 32 169 105 83 80 128 105 191 105
52 0 58 -15 35 -90 -20 -65 -16 -80 23 -80 32 0 68 23 109 69 57 66 81 13 48
-109 -21 -79 -21 -80 28 -80 75 0 111 -45 67 -85 -45 -41 -45 -117 1 -220 12
-28 30 -78 39 -112 l16 -62 40 18 c44 20 67 48 138 168 53 89 89 121 141 130
31 5 35 3 54 -36 30 -58 57 -56 112 12 82 100 144 159 194 183 62 29 68 29
105 2 40 -29 39 -61 -6 -160 -24 -54 -34 -87 -30 -104 12 -45 66 -24 106 41
29 47 77 73 96 53 28 -28 28 -107 0 -212 -15 -54 -26 -112 -24 -129 3 -32 3
-32 81 -43 75 -10 96 -22 97 -50 0 -6 -6 -17 -14 -23 -26 -22 -57 -113 -82
-235 -37 -190 -50 -223 -108 -274 -33 -29 -104 -58 -115 -47 -2 3 1 16 7 30
17 37 15 45 -12 45 -34 0 -73 -35 -101 -91 -28 -54 -49 -69 -97 -69 -54 0
-132 -45 -175 -101 -20 -27 -41 -48 -46 -46 -5 1 -18 25 -28 52 -10 26 -24 52
-31 57 -33 20 -48 7 -99 -92 -50 -99 -86 -139 -137 -155 -20 -6 -22 -3 -20 22
4 55 -2 99 -16 118 -12 16 -17 17 -44 6 -29 -12 -72 -77 -72 -108 0 -6 -12
-25 -26 -42 -20 -24 -34 -31 -62 -31 -93 0 -349 -62 -359 -86 -2 -7 1 -23 8
-36 7 -13 15 -39 18 -58 6 -34 7 -34 136 -80 150 -53 200 -78 251 -122 43 -38
84 -118 84 -165 0 -26 -3 -30 -20 -26 -30 8 -48 -13 -55 -65 -15 -114 -28
-122 -92 -57 -57 58 -85 65 -136 36 -21 -13 -40 -21 -41 -19 -1 2 -9 18 -16
36 -17 44 -36 62 -65 62 -21 0 -25 -7 -34 -53 -5 -28 -12 -95 -15 -147 -4 -52
-11 -112 -16 -132 -14 -47 -61 -88 -104 -88 -31 0 -33 2 -50 60 -11 42 -28 74
-56 104 -47 51 -138 104 -144 84 -38 -119 -52 -153 -78 -190 -16 -24 -39 -51
-51 -61 -20 -17 -21 -17 -41 8 -16 20 -34 28 -76 34 -65 8 -78 15 -90 46 -7
18 -14 22 -32 18 -33 -8 -47 -21 -69 -65 -26 -52 -62 -74 -94 -60 -19 9 -29
27 -42 72 -27 99 -62 102 -117 11 -34 -55 -55 -72 -103 -86 -21 -6 -23 -3 -23
27 0 18 4 49 10 67 7 24 6 39 -1 48 -26 30 -57 12 -127 -76 -25 -31 -40 -41
-62 -41 -29 0 -30 1 -28 52 1 63 -23 88 -84 88 -71 0 -78 10 -78 103 0 142 52
207 164 207 44 0 48 2 43 21 -11 40 10 68 70 96 64 31 62 22 44 145 -16 119
-20 128 -48 128 -13 0 -45 -11 -71 -25 -26 -14 -64 -25 -84 -25 l-38 0 0 58
c0 60 -25 251 -34 260 -3 3 -22 -2 -43 -9 -53 -21 -72 -60 -93 -197 -20 -132
-38 -185 -70 -202 -20 -11 -25 -8 -51 23 -16 19 -40 37 -54 40 -23 4 -29 -1
-48 -41 -39 -81 -68 -81 -81 -1 -7 42 -36 60 -62 38 -8 -6 -32 -46 -55 -89
-46 -89 -84 -130 -124 -133 -27 -2 -30 1 -41 52 -22 97 -48 95 -150 -13 -79
-83 -118 -106 -181 -106 -21 0 -21 4 -25 125 -2 78 -7 128 -15 136 -9 9 -31
-7 -97 -70 -97 -93 -131 -105 -120 -43 3 20 24 79 46 130 21 52 41 108 44 125
3 18 7 42 10 55 4 20 1 22 -41 22 -55 0 -76 -10 -132 -62 -24 -21 -58 -46 -77
-54 l-34 -17 -38 43 c-22 23 -40 46 -42 51 -2 4 13 48 32 97 20 49 36 99 36
110 0 12 -13 29 -34 42 -42 25 -48 42 -45 122 l3 63 -45 -3 c-31 -1 -79 -20
-162 -62 -64 -33 -122 -60 -128 -60 -11 0 -8 45 6 102 12 45 -1 78 -31 78 -33
0 -59 -14 -112 -60 -46 -41 -82 -56 -82 -35 0 21 -48 73 -89 96 -36 20 -39 25
-44 78 -3 33 -20 90 -42 141 -27 60 -39 104 -43 151 -6 83 7 109 51 109 46 0
77 25 77 61 0 17 -16 61 -36 100 -36 69 -36 70 -18 90 11 12 40 32 67 45 26
13 47 29 47 34 0 17 33 11 70 -11 19 -12 47 -25 62 -30 25 -7 31 -3 57 35 43
62 57 72 70 48 19 -35 64 -46 131 -32 32 7 84 10 115 8 52 -4 58 -3 73 21 9
14 45 63 79 108 35 45 73 103 85 130 23 51 29 130 15 196 -7 31 -5 37 9 37 9
0 32 -14 51 -30 45 -40 66 -29 87 44 18 59 42 78 64 49 7 -10 27 -45 43 -78
45 -90 65 -107 118 -103 l44 3 22 -70 c29 -96 39 -112 80 -125 50 -16 59 -7
51 55 -4 36 -2 56 7 63 20 16 55 -4 70 -40 18 -44 40 -60 74 -56 39 4 69 54
83 141 18 109 28 144 54 174 22 26 24 26 62 11 56 -21 70 -14 83 40 6 26 39
101 72 167 40 82 63 142 72 189 l12 69 47 14 c54 15 94 57 104 108 9 48 0 67
-29 60 -33 -9 -148 12 -204 36 -26 11 -69 38 -95 60 l-48 40 -32 -65 c-38 -77
-57 -85 -102 -45 -34 29 -76 39 -76 17 0 -19 -89 -198 -99 -198 -4 0 -33 9
-63 19 -31 11 -91 27 -134 36 -44 10 -82 20 -87 22 -4 2 7 24 23 49 46 66 70
124 70 172 0 53 -15 60 -68 33 -36 -18 -41 -19 -53 -5 -11 13 -10 24 4 64 15
42 23 110 13 110 -2 0 -23 -7 -46 -15 -54 -19 -116 -19 -170 0 -23 8 -44 15
-45 15 -9 0 -26 -112 -35 -227 -18 -224 -62 -301 -112 -195 -19 40 -28 47 -55
50 -40 4 -63 -27 -63 -85 0 -63 -15 -93 -45 -93 -21 0 -30 10 -56 65 -23 47
-37 65 -51 65 -22 0 -63 -40 -93 -91 -22 -36 -56 -49 -80 -29 -8 7 -24 37 -36
68 -22 61 -29 186 -14 289 6 46 4 53 -14 63 -17 9 -29 6 -64 -15 -44 -25 -101
-33 -112 -15 -3 5 -10 35 -15 66 -11 67 -23 84 -60 84 -36 0 -57 -25 -70 -85
-21 -102 -17 -95 -62 -95 -40 0 -47 -5 -127 -89 -92 -96 -138 -119 -207 -106
l-33 6 15 50 c13 41 13 57 4 80 -16 38 -43 37 -87 -1 -41 -36 -48 -37 -68 -6
-30 45 -30 186 -1 257 5 12 -3 23 -28 38 -42 26 -76 92 -76 148 l0 41 -35 -8
c-52 -12 -73 -2 -95 41 -11 21 -20 40 -20 42 0 3 15 10 33 17 47 19 97 59 97
77 0 9 -18 51 -40 94 -22 43 -40 85 -40 93 0 26 38 38 98 31 78 -9 86 0 107
115 20 115 21 225 2 271 -21 50 -66 99 -90 99 -31 0 -41 -9 -65 -57 -20 -38
-55 -63 -70 -49 -8 8 -32 78 -32 93 0 7 23 24 50 38 35 18 50 31 50 45 0 11
-5 20 -11 20 -13 0 -39 62 -39 96 l0 26 -74 -7 c-71 -6 -73 -6 -80 17 -10 38
-7 48 19 74 l25 25 56 -41 c98 -73 169 -90 198 -48 23 32 20 72 -11 160 l-27
76 42 46 c49 53 56 77 49 157 -3 32 -3 59 -1 59 3 0 22 -9 43 -20 57 -28 114
-36 133 -16 9 8 24 48 33 88 12 45 27 81 42 96 l24 24 22 -20 c28 -25 73 -48
112 -56 28 -6 31 -4 49 39 25 61 59 79 135 70 l57 -7 26 39 c14 21 64 80 112
131 93 99 125 154 126 214 l0 36 34 -10 c27 -9 46 -7 97 11 34 11 73 21 86 21
l24 0 -26 -44 c-21 -36 -24 -49 -16 -65 12 -22 16 -21 148 33 107 45 144 34
168 -49 18 -61 23 -63 100 -43 38 10 47 10 60 -3 13 -12 14 -21 5 -43 -35 -94
18 -137 95 -76 21 17 50 30 65 30 24 0 29 -5 33 -32 3 -18 11 -50 19 -70 11
-31 18 -38 40 -38 18 0 33 8 44 25 29 45 60 43 110 -6 51 -50 60 -49 110 22
32 45 77 79 90 66 4 -4 2 -25 -5 -47 -24 -81 26 -106 90 -44 60 59 78 27 33
-57 -36 -65 -29 -79 39 -79 30 0 62 -6 73 -14 19 -14 19 -15 -5 -40 -14 -15
-25 -41 -28 -69 l-5 -44 78 -16 c44 -9 121 -24 173 -33 58 -10 115 -28 150
-46 35 -18 57 -25 59 -18 13 38 72 96 110 108 36 12 41 17 36 37 -10 39 14
102 49 129 33 25 165 76 196 76 10 0 38 -22 63 -50 30 -33 53 -50 69 -50 17 0
54 28 118 89 76 71 93 92 86 107 -37 90 -26 163 50 325 57 121 66 159 40 159
-9 0 -70 -9 -138 -20 -127 -20 -213 -42 -259 -66 l-28 -15 0 40 c0 30 -6 44
-22 56 -112 78 -134 80 -163 15 -24 -53 -46 -65 -69 -38 -16 18 -25 20 -91 13
-84 -8 -110 -2 -126 26 -8 16 -5 26 20 55 17 19 40 53 52 75 l21 41 -32 31
c-17 17 -40 48 -51 69 -11 21 -26 38 -35 38 -8 0 -37 -11 -64 -25 -28 -14 -66
-25 -90 -25 -39 0 -40 1 -40 36 0 23 -18 69 -52 135 -43 83 -53 111 -56 165
l-4 64 -44 0 c-23 0 -45 4 -49 10 -3 5 12 27 33 48 57 57 71 116 49 201 -21
77 -50 129 -117 210 l-49 59 59 80 c72 98 108 122 182 122 125 0 183 35 311
188 79 95 106 114 198 142 36 11 78 31 93 45 l26 24 25 -49 c34 -67 63 -69
162 -13 49 27 71 34 105 31 42 -3 44 -5 78 -69 62 -119 88 -132 156 -79 49 40
80 37 76 -5 -4 -38 17 -59 73 -74 72 -20 72 -20 41 -108 -16 -43 -31 -97 -33
-121 -15 -127 117 -121 212 10 112 154 133 169 214 150 46 -10 53 -9 93 13 53
29 148 55 204 55 l42 0 11 -61 c25 -143 96 -193 354 -253 l144 -33 32 47 c43
63 50 111 22 139 -31 31 -72 25 -89 -14 -21 -48 -28 -59 -40 -63 -7 -2 -12 5
-12 15 0 39 -56 72 -158 92 -115 23 -160 61 -147 123 15 65 57 137 141 238 47
56 91 115 99 131 l15 28 -37 6 c-107 16 -146 29 -186 59 -37 28 -86 96 -87
119 0 5 42 28 94 52 155 73 196 121 196 234 l0 59 34 6 c54 10 82 40 116 123
43 105 53 115 81 79 34 -43 71 -74 108 -92 46 -22 122 -22 155 -1 32 22 31 22
33 -12 1 -16 14 -52 29 -80 32 -61 59 -67 111 -21 45 40 73 40 73 0 0 -17 12
-53 26 -81 20 -40 29 -49 42 -43 9 4 45 10 78 12 72 4 100 -7 174 -73 76 -67
102 -83 108 -65 11 33 103 110 212 178 64 39 137 89 162 112 28 24 49 36 53
30 4 -6 24 -22 46 -35 50 -32 57 -61 30 -128 -29 -74 -41 -136 -31 -162 6 -17
27 -29 75 -45 37 -12 69 -29 72 -37 3 -8 -6 -36 -21 -62 -14 -27 -26 -56 -26
-65 0 -26 40 -35 90 -20 97 29 135 10 105 -52 -43 -91 -43 -243 1 -309 16 -24
22 -26 63 -22 25 2 61 9 79 15 l32 11 0 -62 c0 -66 18 -149 40 -184 13 -20 16
-21 44 -6 16 8 68 52 116 98 73 69 96 84 138 95 28 6 63 10 79 9 42 -5 52 6
93 95 49 106 80 143 133 157 l42 11 50 -54 c27 -30 65 -84 83 -121 31 -64 34
-67 68 -67 38 0 102 29 125 56 18 23 99 74 116 74 8 0 13 -13 13 -36 0 -79 42
-105 185 -113 l100 -6 -1 -45 c-1 -25 -8 -64 -15 -88 -13 -41 -12 -43 14 -69
22 -22 37 -28 89 -31 52 -3 71 1 110 21 46 24 47 24 52 3 3 -12 6 -44 6 -71 0
-42 -8 -64 -46 -130 -93 -161 -98 -174 -98 -255 l-1 -75 35 2 c19 0 56 4 82 8
69 11 76 -8 43 -126 -38 -134 -60 -161 -112 -134 -15 8 -45 15 -65 15 l-37 0
-21 -68 c-27 -91 -58 -138 -91 -134 -13 2 -54 5 -91 9 -66 5 -68 5 -78 -22 -5
-14 -10 -45 -10 -69 0 -59 -14 -69 -59 -45 -58 31 -106 25 -205 -26 -69 -35
-99 -45 -137 -45 l-49 0 0 -47 c0 -68 25 -102 106 -146 112 -60 134 -86 134
-159 0 -46 -1 -48 -24 -42 -43 10 -90 -14 -150 -77 l-57 -61 -34 27 c-56 42
-116 65 -173 65 -96 0 -180 -41 -363 -176 -48 -35 -90 -64 -94 -64 -4 0 -18 9
-32 20 -37 29 -74 25 -124 -13 -24 -19 -60 -42 -79 -52 -33 -17 -35 -17 -45 0
-39 66 -53 81 -87 89 -48 12 -86 -4 -116 -50 -12 -19 -34 -40 -47 -46 -21 -9
-29 -7 -59 20 -43 37 -123 67 -201 75 l-60 6 -55 -58 c-30 -31 -71 -85 -90
-118 l-35 -60 -21 22 c-19 21 -25 22 -67 12 l-45 -10 -31 -86 c-17 -47 -60
-138 -96 -201 -36 -63 -89 -161 -117 -217 l-51 -103 -66 0 -66 0 -40 -62 c-73
-113 -106 -251 -85 -352 17 -83 51 -93 116 -34 21 19 21 19 40 -9 13 -20 19
-53 22 -118 2 -49 7 -93 11 -98 4 -4 34 -12 66 -17 32 -5 63 -14 69 -20 18
-18 8 -83 -23 -163 -34 -85 -39 -138 -15 -157 29 -25 72 -15 142 32 144 97
141 99 139 -59 -2 -139 5 -167 58 -216 l26 -23 -41 -86 c-170 -364 -210 -857
-83 -1046 l18 -27 7 45 c4 25 2 144 -4 264 -15 323 -2 406 111 698 23 59 44
135 48 168 4 43 11 64 23 70 10 5 30 30 44 54 30 51 60 76 93 76 21 0 23 -4
23 -56 0 -31 6 -75 12 -98 15 -48 79 -116 110 -116 25 0 108 46 108 60 0 18
83 70 112 70 l28 0 0 -76 0 -76 45 -41 c71 -62 99 -125 99 -222 0 -116 -27
-194 -164 -470 -66 -132 -123 -253 -127 -270 -6 -27 -1 -24 46 30 151 170 256
381 302 603 19 91 28 336 14 373 -13 34 155 199 201 199 25 0 32 -41 18 -95
-21 -77 -19 -105 9 -105 31 0 96 39 182 111 51 42 89 65 122 73 62 16 69 40
18 62 -37 15 -39 15 -122 -25 -47 -23 -91 -41 -99 -41 -10 0 -14 12 -14 40 0
64 -17 90 -58 90 -62 0 -116 -35 -187 -120 -64 -78 -79 -90 -130 -110 -23 -9
-28 -6 -45 23 -14 22 -20 50 -20 90 0 61 -21 117 -44 117 -20 0 -82 -45 -117
-84 -31 -35 -102 -76 -133 -76 -9 0 -28 11 -41 25 -23 22 -25 32 -25 118 0
109 -12 134 -71 143 -44 7 -82 -22 -139 -107 -22 -31 -53 -67 -70 -79 l-30
-21 -10 27 c-6 15 -10 78 -8 140 2 102 0 116 -18 141 -37 49 -74 44 -160 -22
-61 -47 -99 -64 -114 -49 -5 5 1 39 15 79 14 39 27 95 31 125 7 64 8 63 -89
120 l-62 35 -6 72 c-6 83 -22 112 -86 156 -26 18 -59 42 -74 55 -28 23 -28 24
-13 60 43 103 104 116 246 53 105 -47 106 -45 77 92 -28 135 -26 198 8 237 23
27 31 31 60 26 131 -23 131 -23 115 81 -18 118 -16 157 12 189 l23 28 46 -27
c68 -40 83 -37 91 22 8 65 51 122 113 152 91 44 232 22 305 -48 l26 -25 17 37
c18 38 64 78 102 89 28 9 41 -14 54 -97 12 -72 31 -107 60 -107 39 0 60 22 94
96 19 41 41 77 51 81 9 3 49 -10 94 -32 l79 -38 66 59 c106 95 115 99 186 84
72 -16 119 -45 137 -85 13 -29 16 -30 75 -30 98 -1 130 -18 239 -123 l98 -95
63 5 c79 7 125 30 224 114 84 71 153 108 220 119 39 6 43 9 48 43 25 146 77
287 130 350 l24 29 88 -24 c48 -13 102 -30 120 -38 32 -14 33 -14 100 40 37
30 90 66 117 81 l49 27 -7 -24 c-4 -13 -10 -80 -13 -149 l-5 -125 50 -28 c58
-31 108 -35 160 -10 20 10 82 61 138 114 114 108 171 146 235 157 42 7 44 6
59 -23 12 -24 28 -34 85 -53 39 -12 76 -30 83 -39 18 -25 15 -96 -8 -161 -51
-143 -49 -196 7 -211 33 -9 100 -3 156 15 15 5 18 2 13 -14 -10 -29 11 -63 58
-97 28 -21 42 -40 44 -58 5 -40 -37 -122 -106 -208 -34 -42 -70 -97 -81 -122
l-20 -46 26 -16 c32 -21 58 -80 78 -180 9 -43 25 -95 35 -116 37 -71 121 -77
219 -14 91 59 158 88 173 75 7 -6 22 -17 32 -24 17 -12 18 -17 7 -44 -17 -40
-18 -96 -3 -114 6 -8 31 -20 54 -27 66 -20 107 -41 113 -60 8 -25 -35 -207
-92 -393 -3 -11 -15 -18 -30 -18 -62 0 -109 -48 -165 -170 -19 -41 -44 -86
-55 -99 -18 -22 -22 -23 -59 -11 -21 7 -62 26 -90 41 -28 16 -53 29 -56 29 -3
0 -34 -41 -69 -92 l-63 -92 -25 34 c-70 90 -95 112 -141 117 -54 6 -72 -9 -99
-87 -36 -101 -64 -112 -136 -50 -38 33 -54 40 -89 40 l-42 0 -23 -62 c-12 -35
-25 -95 -28 -134 l-6 -71 39 -39 c54 -54 96 -64 263 -64 121 0 231 -12 231
-26 0 -2 -5 -13 -12 -23 -8 -14 -8 -29 3 -65 l13 -46 48 0 c60 0 91 12 155 61
57 42 65 46 57 25 -8 -21 15 -96 32 -103 18 -7 80 33 128 83 20 21 79 102 131
180 98 147 147 198 226 233 60 28 69 26 69 -10 0 -55 15 -69 71 -69 28 0 92
-12 142 -27 120 -35 190 -35 250 0 48 29 52 28 72 -20 8 -18 20 -33 28 -33 26
0 147 165 147 201 0 20 -114 2 -190 -30 -76 -33 -146 -48 -197 -43 -37 4 -40
15 -21 85 28 107 -24 130 -109 47 -47 -46 -83 -64 -83 -41 0 5 9 30 20 56 27
64 26 93 -5 107 -22 10 -30 6 -88 -49 -94 -88 -123 -95 -213 -57 -7 3 -19 -17
-29 -47 -42 -131 -107 -187 -350 -304 -106 -51 -196 -98 -200 -104 -4 -8 -20
0 -47 24 -22 20 -83 56 -135 81 -72 33 -93 47 -85 56 5 7 12 57 14 110 1 53 8
102 14 108 22 22 68 -3 134 -72 56 -59 72 -70 108 -75 38 -5 42 -3 52 21 5 15
10 45 10 66 0 55 15 90 40 90 11 0 42 -16 69 -35 60 -43 121 -69 133 -57 5 5
26 55 48 113 59 154 87 184 183 197 l58 7 35 80 c90 206 124 340 124 486 0 78
-2 90 -20 99 -14 8 -31 8 -58 0 -58 -16 -80 -12 -98 15 -24 36 -5 79 60 137
35 31 55 58 60 79 9 44 1 50 -47 33 -62 -22 -90 -20 -130 10 -34 26 -37 27
-60 11 -14 -9 -48 -43 -76 -75 -63 -73 -122 -109 -190 -117 -49 -6 -51 -5 -62
23 -20 51 -22 130 -4 224 9 51 14 95 11 98 -4 3 -22 -2 -41 -11 -20 -9 -40
-17 -45 -17 -18 0 -10 32 15 62 37 44 88 134 119 213 30 75 56 153 56 171 0 6
-22 23 -49 37 -63 35 -74 50 -81 106 -7 59 -25 63 -119 22 -38 -17 -74 -31
-79 -31 -5 0 -1 32 9 73 11 39 26 144 34 232 8 88 17 175 21 194 7 32 6 33
-17 26 -13 -4 -39 -19 -57 -34 -19 -14 -43 -34 -55 -43 -12 -9 -35 -20 -51
-24 -32 -8 -31 -16 -11 101 3 17 1 37 -4 45 -9 12 -16 12 -53 -6 -24 -12 -74
-47 -112 -78 -38 -31 -72 -56 -77 -56 -5 0 -9 27 -9 60 0 33 -3 60 -7 60 -15
0 -62 -36 -83 -62 -11 -15 -39 -66 -61 -113 -79 -168 -171 -228 -234 -153 -28
33 -28 33 -21 143 3 60 9 134 12 163 l7 52 -42 0 c-56 0 -88 -18 -140 -80 -24
-29 -60 -59 -80 -67 -32 -14 -36 -13 -48 3 -7 10 -13 37 -13 60 0 52 -20 71
-58 58 -15 -5 -34 -24 -43 -41 -21 -42 -39 -63 -53 -63 -6 0 -31 32 -55 71
-41 67 -88 109 -121 109 -11 0 -29 -42 -62 -142 -56 -169 -73 -258 -64 -342
l6 -61 -49 0 c-63 0 -87 -18 -169 -123 -78 -101 -119 -133 -175 -139 -43 -5
-44 -4 -129 79 -100 99 -139 121 -230 126 -46 3 -68 8 -68 17 0 32 -43 65
-111 85 -38 12 -69 25 -69 29 0 14 58 31 102 31 45 0 87 -20 177 -84 36 -25
70 -46 75 -46 6 0 22 20 34 44 34 63 52 77 189 145 66 33 123 64 126 68 10 16
-15 118 -41 173 -15 30 -50 79 -79 110 l-52 57 44 43 45 44 25 -24 c19 -18 40
-25 84 -28 57 -4 60 -3 74 24 46 88 148 125 229 83 23 -12 35 11 49 102 7 41
18 87 26 102 16 31 31 30 87 -4 47 -29 92 -25 109 9 45 87 87 289 87 414 l0
67 -52 19 c-36 13 -57 28 -66 45 -15 32 -8 49 78 177 31 47 59 92 62 100 3 8
-6 28 -20 45 -20 24 -23 36 -18 70 24 148 17 195 -27 195 -35 -1 -63 -22 -115
-85 -36 -46 -57 -62 -86 -69 -46 -12 -59 2 -51 54 3 19 8 67 11 105 9 95 3
100 -131 100 -72 0 -107 4 -118 14 -21 17 -21 69 -2 95 23 30 19 73 -6 81 -12
4 -38 22 -59 41 -20 19 -53 40 -72 48 l-35 15 -21 -86 c-24 -96 -57 -154 -105
-183 -65 -40 -83 -19 -47 55 31 64 27 75 -24 75 -55 0 -71 18 -71 83 l0 49
-45 -7 c-110 -16 -148 -16 -206 -3 l-62 15 -5 -41 c-3 -23 -16 -64 -28 -93
l-21 -52 -35 14 c-59 25 -68 21 -98 -50 -44 -105 -114 -177 -183 -191 -29 -6
-30 -5 -47 68 -10 40 -22 81 -27 91 -11 21 -44 22 -93 1 -20 -8 -51 -14 -69
-12 -30 3 -31 5 -34 52 -3 50 3 88 38 215 25 93 20 101 -67 101 -35 0 -73 5
-83 10 -18 10 -18 12 -3 48 9 20 21 58 29 85 11 43 11 48 -6 57 -24 13 -51 13
-122 -2 -31 -7 -60 -9 -63 -6 -3 3 10 44 30 91 19 47 35 95 35 106 0 35 -127
160 -194 192 -69 33 -75 30 -111 -40 -12 -26 -32 -57 -43 -71 l-20 -24 -36 28
c-28 21 -40 25 -50 17 -8 -7 -37 -57 -66 -112 -31 -58 -65 -108 -81 -120 l-29
-20 -47 40 c-64 54 -110 71 -187 71 -73 0 -72 0 -82 88 -4 32 -11 65 -16 75
-13 25 -66 22 -113 -8 -61 -37 -82 -34 -95 18 -28 111 -34 129 -47 134 -7 3
-41 -6 -76 -21 -59 -24 -85 -30 -134 -27 -17 1 -23 7 -23 25 0 58 -14 73 -77
79 -32 4 -76 9 -98 12 -28 5 -46 2 -60 -8z"/>
<path d="M5411 7444 c-33 -25 -110 -103 -171 -174 -61 -71 -129 -143 -151
-161 -38 -30 -41 -31 -59 -14 -10 9 -24 43 -30 74 -22 109 -39 141 -78 141
-15 0 -20 -79 -10 -140 12 -67 36 -116 78 -157 61 -60 66 -58 203 83 134 140
205 225 254 306 62 103 55 111 -36 42z"/>
<path d="M5506 7248 c-9 -12 -16 -28 -16 -35 0 -6 -28 -36 -62 -65 -154 -132
-218 -204 -218 -247 0 -12 62 5 115 32 82 41 218 216 240 310 6 24 4 27 -18
27 -15 0 -32 -9 -41 -22z"/>
<path d="M4753 7143 c-4 -10 -7 -53 -8 -96 0 -74 2 -80 28 -103 18 -15 41 -24
62 -24 50 0 57 35 21 105 -16 31 -26 68 -26 93 0 41 -1 42 -35 42 -25 0 -38
-5 -42 -17z"/>
<path d="M5728 7053 c-42 -11 -8 -71 68 -124 70 -48 76 -67 56 -181 -17 -103
-13 -141 20 -162 23 -14 25 -11 44 65 21 77 23 218 5 274 -33 100 -109 150
-193 128z"/>
<path d="M3900 6963 c-14 -2 -70 -25 -125 -51 -66 -30 -117 -47 -153 -50 -45
-4 -60 -10 -84 -36 -39 -41 -60 -90 -52 -121 5 -21 10 -24 33 -18 51 12 129
51 226 113 85 54 153 90 169 90 3 0 10 -17 17 -38 9 -33 7 -48 -16 -117 -15
-44 -27 -98 -28 -120 -2 -39 -1 -40 32 -43 55 -5 80 6 140 63 55 52 102 80
115 68 14 -15 3 -72 -24 -128 -17 -33 -30 -70 -30 -82 0 -19 5 -23 34 -23 28
0 47 11 101 61 42 37 73 58 82 55 8 -3 17 -6 19 -6 10 0 3 -100 -11 -150 -19
-69 -19 -114 -1 -129 8 -7 44 -20 81 -31 88 -25 95 -32 95 -94 0 -119 -62
-260 -156 -353 -55 -56 -67 -63 -101 -63 -22 0 -62 7 -89 15 -63 19 -118 19
-134 0 -7 -8 -15 -35 -17 -58 l-5 -44 166 -13 c143 -11 169 -11 181 1 7 8 33
50 56 94 88 166 158 247 197 229 9 -4 97 -10 196 -13 l179 -6 56 -111 c111
-216 188 -286 276 -249 l37 15 -48 33 c-69 47 -127 124 -214 281 l-75 136
-135 -3 c-153 -2 -196 10 -236 70 -20 29 -41 129 -30 140 2 3 45 -12 95 -32
148 -59 226 -71 330 -49 l24 5 -6 117 c-7 134 -30 229 -84 339 -39 81 -52 83
-60 11 -4 -32 4 -71 31 -152 20 -60 38 -130 42 -155 5 -43 4 -47 -24 -62 -52
-29 -143 -1 -320 99 -41 23 -76 42 -78 42 -2 0 -4 -11 -4 -24 0 -52 -94 -78
-124 -34 -20 29 -20 61 1 162 33 163 -9 207 -136 142 -33 -18 -68 -15 -56 4 9
15 -5 116 -19 136 -20 26 -78 1 -147 -62 -33 -30 -68 -54 -79 -54 -11 0 -20 1
-20 3 0 1 7 37 15 80 8 43 15 101 15 128 l0 49 -47 -1 c-27 -1 -59 -4 -73 -6z"/>
<path d="M5444 6938 c9 -44 22 -56 94 -91 35 -17 70 -40 77 -51 7 -12 23 -83
35 -158 22 -140 20 -195 -9 -271 -10 -25 -9 -27 7 -18 81 43 123 216 88 364
-38 163 -129 256 -250 257 l-48 0 6 -32z"/>
<path d="M5180 6850 c0 -6 9 -76 21 -158 23 -161 21 -267 -5 -340 -15 -42 -15
-44 11 -85 76 -120 147 -312 173 -464 l12 -71 103 -76 c114 -84 187 -122 253
-132 50 -7 68 -28 127 -142 38 -72 83 -122 111 -122 37 0 -20 177 -81 248 -42
50 -137 110 -265 169 l-115 52 -22 68 c-43 127 -96 258 -169 411 -69 145 -73
155 -60 181 8 15 20 63 27 108 20 132 -11 272 -76 336 -29 28 -45 34 -45 17z"/>
<path d="M6030 6563 c0 -45 -21 -127 -43 -168 -8 -16 -48 -75 -88 -130 -88
-122 -126 -203 -139 -294 -10 -68 -4 -161 10 -161 3 0 17 11 29 24 17 18 24
42 30 102 10 97 25 127 136 274 128 170 163 252 149 347 -6 42 -7 43 -45 43
-38 0 -39 -1 -39 -37z"/>
<path d="M8555 6169 c-54 -12 -110 -60 -140 -118 -27 -54 -49 -163 -65 -326
-19 -185 -13 -174 -106 -215 -45 -19 -145 -70 -223 -114 -146 -80 -264 -135
-292 -136 -50 -1 -52 131 -4 301 49 173 46 247 -12 284 l-23 15 0 -84 c0 -164
-31 -276 -157 -559 -65 -147 -103 -245 -103 -269 0 -5 9 -8 20 -8 29 0 57 36
80 106 28 82 50 99 139 107 93 8 193 49 366 151 192 113 242 140 300 161 28
10 55 23 61 29 6 6 17 74 23 151 14 152 22 208 48 328 16 77 18 79 62 104 65
37 81 53 81 80 0 12 -3 23 -7 22 -5 -1 -26 -5 -48 -10z"/>
<path d="M8683 6022 c-6 -27 -30 -95 -53 -153 -50 -125 -61 -207 -35 -262 20
-42 20 -42 138 -2 90 31 161 78 198 131 l30 44 -27 0 c-14 0 -63 -16 -107 -35
-45 -20 -99 -38 -119 -42 l-38 -6 0 39 c0 52 20 120 64 226 20 48 36 92 36 97
0 6 -17 11 -38 11 -36 0 -38 -1 -49 -48z"/>
<path d="M6290 6008 c-55 -74 -138 -257 -166 -363 -33 -130 -31 -285 7 -380
l23 -60 13 128 c27 279 71 428 172 577 37 54 42 113 12 130 -27 14 -26 15 -61
-32z"/>
<path d="M12175 5956 c-41 -18 -92 -77 -104 -123 -14 -48 -14 -124 -1 -157 8
-22 16 -26 50 -26 51 0 98 24 173 88 49 42 109 72 144 72 5 0 17 -84 27 -187
19 -216 22 -293 16 -418 l-4 -90 62 -30 c93 -45 98 -53 71 -105 -15 -28 -24
-67 -27 -114 -5 -80 -2 -85 60 -105 45 -15 55 -39 32 -86 -22 -46 -73 -81
-142 -97 -66 -14 -73 -24 -137 -189 -49 -125 -101 -219 -137 -249 -20 -16 -26
-17 -50 -4 -40 21 -77 17 -158 -16 -42 -17 -91 -30 -115 -30 -49 0 -54 -8 -79
-118 -8 -34 -23 -79 -34 -100 -17 -33 -24 -37 -60 -40 -38 -3 -47 1 -95 47
-90 85 -151 80 -193 -16 -14 -32 -33 -66 -41 -75 -22 -25 -50 -7 -73 47 l-19
44 -43 -24 c-54 -31 -75 -31 -170 1 l-78 27 -93 -61 c-195 -129 -252 -229
-197 -349 22 -49 45 -55 88 -25 47 33 51 33 62 11 9 -16 8 -32 -4 -70 -32 -96
16 -119 127 -65 48 24 80 34 95 30 20 -6 22 -12 22 -84 0 -62 3 -79 16 -84 35
-13 89 -4 172 29 48 20 103 38 122 41 42 6 69 -8 53 -28 -5 -7 -50 -65 -100
-130 -116 -149 -145 -207 -151 -305 -5 -74 -5 -74 -30 -68 -14 3 -45 20 -70
37 -29 20 -62 33 -91 36 -42 4 -51 0 -91 -32 -75 -60 -133 -96 -155 -96 -16 0
-27 12 -41 43 -25 55 -78 114 -125 138 -50 25 -56 24 -89 -11 -36 -38 -77 -39
-156 -3 -32 14 -75 30 -96 33 -37 7 -38 6 -48 -29 -6 -20 -13 -80 -17 -133
l-6 -98 -62 0 -62 0 -13 -72 c-14 -85 -30 -118 -65 -146 -28 -22 -33 -21 -204
28 -70 21 -133 21 -145 1 -3 -4 -10 -41 -16 -82 -22 -148 -34 -160 -125 -119
-38 17 -87 35 -109 40 -37 8 -46 6 -88 -22 -27 -16 -67 -51 -91 -77 -41 -46
-42 -46 -77 -34 -19 6 -67 12 -106 12 -47 1 -75 6 -83 14 -6 7 -12 42 -13 78
l-3 64 -40 6 c-31 5 -48 16 -75 49 -86 104 -105 121 -140 126 -27 4 -43 0 -70
-20 -19 -14 -48 -32 -64 -41 -28 -17 -29 -16 -71 25 -46 45 -110 70 -182 70
-28 0 -43 4 -43 13 0 40 -27 90 -79 149 -52 59 -91 131 -78 144 2 3 29 9 60
14 73 12 124 39 174 93 48 52 63 79 91 167 23 69 62 242 62 272 0 15 -4 16
-26 8 -43 -17 -61 -12 -110 31 -87 75 -112 73 -169 -16 -45 -71 -64 -71 -127
-5 -42 44 -52 50 -89 50 -82 0 -111 -26 -197 -177 -18 -32 -42 -64 -53 -71
-17 -11 -25 -8 -60 22 -43 37 -84 50 -98 32 -5 -6 -18 -29 -29 -52 -23 -45
-36 -58 -69 -68 -18 -6 -23 -1 -33 30 -7 20 -37 72 -66 115 -79 117 -84 129
-84 211 0 86 -16 118 -59 118 -35 0 -71 -34 -71 -66 0 -15 7 -54 16 -88 34
-128 6 -206 -141 -401 -164 -217 -187 -293 -144 -475 33 -141 38 -288 28 -790
-14 -637 5 -918 76 -1163 64 -223 173 -376 321 -451 53 -27 64 -23 64 26 0 58
-31 105 -139 209 -112 110 -139 150 -165 253 -44 169 -47 238 -50 1083 l-2
808 -23 60 c-26 67 -31 142 -12 197 7 21 33 63 57 95 25 32 67 96 92 142 63
114 108 161 154 161 47 0 66 -24 90 -112 36 -137 71 -153 123 -57 39 73 50 86
82 92 47 9 72 -8 79 -54 8 -48 22 -56 63 -35 42 22 77 71 116 166 35 83 76
147 101 157 28 11 62 -25 79 -82 37 -129 103 -126 179 7 26 46 67 78 101 78
13 0 15 -22 15 -160 0 -173 -9 -214 -51 -244 -13 -9 -38 -16 -56 -16 -27 0
-34 4 -39 28 -12 54 -17 67 -28 74 -23 16 -36 7 -46 -34 -7 -24 -32 -79 -57
-122 -88 -153 -112 -226 -80 -239 7 -3 31 2 52 10 91 34 101 30 142 -51 21
-41 27 -70 31 -146 3 -53 10 -98 16 -102 21 -15 51 -8 96 22 59 39 94 39 128
-1 39 -46 51 -70 52 -101 0 -25 4 -28 31 -28 31 0 49 15 128 104 30 33 52 30
63 -9 5 -19 41 -62 97 -115 96 -92 119 -137 107 -208 l-5 -35 38 6 c21 2 62
21 91 41 40 28 62 36 96 36 43 0 44 -1 44 -32 1 -45 30 -106 69 -144 38 -37
129 -89 139 -79 13 12 5 85 -12 107 -9 13 -28 38 -41 57 -33 45 -31 83 6 137
52 76 114 82 216 21 52 -31 123 -55 123 -41 0 3 7 39 16 81 17 83 41 138 72
166 19 17 22 16 103 -19 143 -63 178 -58 240 33 39 58 99 123 114 123 29 0 45
31 65 130 29 140 42 170 74 170 25 0 45 -21 89 -90 17 -26 31 -36 55 -38 30
-3 34 0 56 47 55 119 70 111 151 -79 24 -56 47 -96 57 -98 26 -5 73 44 112
117 46 89 78 115 129 108 21 -3 51 -16 67 -29 132 -106 141 -111 190 -116 l49
-4 6 38 c31 177 82 297 238 552 39 64 66 120 63 128 -3 8 -23 22 -43 31 -49
20 -115 13 -213 -22 -41 -15 -87 -31 -102 -35 l-28 -9 0 95 0 94 -39 0 c-22 0
-58 -11 -86 -25 -49 -26 -135 -45 -135 -29 1 67 34 273 49 303 29 56 45 66 80
51 40 -16 62 -42 70 -82 6 -29 10 -33 36 -30 128 14 254 60 328 120 l39 31 71
-36 c51 -25 90 -37 132 -41 l60 -4 23 54 c12 30 25 78 29 105 5 50 6 51 47 62
23 6 62 24 85 42 24 17 58 37 76 45 30 12 34 11 90 -27 46 -31 67 -39 93 -37
34 3 35 5 66 93 17 50 65 168 106 262 64 148 77 172 93 167 10 -3 52 2 92 11
l73 18 6 41 c4 22 18 77 31 121 14 44 25 94 25 111 0 38 -38 80 -81 89 -39 9
-38 32 5 109 63 114 56 165 -26 186 -57 14 -88 28 -88 38 0 5 18 27 40 50 22
22 40 47 40 54 0 8 -16 30 -36 49 -19 18 -44 48 -55 66 -20 31 -20 31 1 71 27
52 27 99 0 197 -21 77 -23 143 -5 201 6 18 0 24 -34 38 -85 33 -144 15 -254
-76 -89 -75 -132 -102 -147 -93 -28 18 8 83 61 111 42 21 69 50 69 74 0 17 -7
20 -42 20 -24 -1 -57 -7 -73 -14z"/>
<path d="M9390 5670 c-178 -21 -353 -98 -460 -204 -28 -27 -50 -52 -50 -56 0
-9 117 -149 230 -274 138 -154 190 -251 215 -398 5 -32 11 -39 43 -48 20 -6
96 -14 167 -17 102 -4 144 -2 195 11 64 16 110 41 117 63 8 22 -72 33 -229 33
l-156 0 -35 48 c-19 26 -63 99 -97 162 -125 227 -200 317 -312 370 l-57 27 32
30 c43 42 73 55 234 108 137 46 225 91 243 126 13 23 13 29 -2 28 -7 -1 -42
-5 -78 -9z"/>
<path d="M5603 5285 c8 -56 29 -98 104 -202 32 -45 63 -90 70 -100 11 -17 12
-17 27 2 44 56 28 138 -41 215 -43 48 -143 130 -159 130 -4 0 -4 -20 -1 -45z"/>
<path d="M3990 5298 c0 -41 24 -137 42 -166 21 -34 72 -67 88 -57 33 21 -14
176 -63 208 -36 24 -67 30 -67 15z"/>
<path d="M3751 5254 c-12 -15 -21 -36 -21 -47 0 -18 47 -70 143 -155 22 -20
34 -39 30 -45 -4 -7 -58 -80 -120 -163 -141 -190 -193 -272 -243 -376 -43 -91
-57 -138 -43 -138 20 0 78 46 100 79 13 18 28 60 35 93 11 53 16 61 54 83 51
30 83 70 156 195 62 105 116 164 140 155 17 -7 83 9 107 24 12 7 11 17 -5 61
l-19 52 -45 -5 c-25 -3 -54 -8 -65 -12 -17 -5 -24 4 -49 66 -27 68 -98 159
-124 159 -6 0 -20 -12 -31 -26z"/>
<path d="M8433 5201 c-137 -91 -439 -236 -591 -283 -70 -21 -122 -63 -122 -97
0 -19 6 -21 53 -21 122 0 290 64 456 173 90 59 99 63 143 59 40 -3 60 2 132
38 101 50 158 60 207 35 80 -42 117 -83 221 -250 31 -49 72 -104 90 -122 32
-31 105 -69 115 -59 3 2 -6 20 -20 38 -13 18 -64 102 -113 186 -99 171 -157
242 -235 289 -62 37 -153 63 -219 63 -37 -1 -58 -9 -117 -49z"/>
<path d="M4300 4815 c-119 -28 -187 -64 -278 -149 -77 -72 -127 -145 -252
-366 -51 -91 -99 -175 -108 -187 -14 -23 -14 -23 19 -17 93 18 160 83 209 200
16 41 44 108 61 150 65 158 136 208 340 243 160 26 201 48 223 119 7 22 6 22
-76 21 -46 -1 -108 -7 -138 -14z"/>
<path d="M7765 4643 c-55 -10 -67 -16 -101 -46 -26 -22 -56 -70 -96 -154 -74
-152 -112 -188 -153 -143 -24 27 -53 25 -64 -2 -5 -13 -30 -92 -56 -176 -53
-170 -57 -235 -18 -274 l21 -20 17 79 c22 99 52 170 79 186 12 6 36 16 55 22
30 9 41 25 115 161 44 84 91 165 103 180 l22 29 1 -37 c0 -49 19 -88 42 -88
35 0 99 41 156 99 70 70 91 87 120 95 21 7 22 5 22 -66 0 -139 34 -158 130
-72 68 61 128 93 172 94 24 0 32 -8 57 -59 17 -32 37 -61 45 -64 9 -4 55 14
103 39 149 76 265 91 381 50 l42 -15 0 34 c0 44 -25 70 -82 86 -51 13 -146 2
-300 -37 -53 -13 -101 -24 -106 -24 -5 0 -12 18 -16 40 -8 49 -32 64 -97 58
-33 -4 -59 -14 -84 -34 -20 -16 -47 -37 -60 -48 -13 -10 -40 -19 -62 -20 l-38
-1 -3 69 -3 69 -56 -6 c-55 -6 -62 -9 -177 -92 -68 -49 -76 -47 -76 24 0 63
-3 70 -35 64z"/>
<path d="M6997 4227 c-4 -41 -23 -129 -43 -198 -61 -203 -83 -292 -83 -329
l-1 -35 20 25 c83 104 137 269 185 568 l7 42 -40 0 -39 0 -6 -73z"/>
</g>
</svg>
