<?xml version="1.0" standalone="no"?>
<!DOCTYPE svg PUBLIC "-//W3C//DTD SVG 20010904//EN"
 "http://www.w3.org/TR/2001/REC-SVG-20010904/DTD/svg10.dtd">
<svg version="1.0" xmlns="http://www.w3.org/2000/svg"
 width="1280.000000pt" height="1019.000000pt" viewBox="0 0 1280.000000 1019.000000"
 preserveAspectRatio="xMidYMid meet">
<metadata>
Created by potrace 1.15, written by Peter Selinger 2001-2017
</metadata>
<g transform="translate(0.000000,1019.000000) scale(0.100000,-0.100000)"
fill="#000000" stroke="none">
<path d="M6180 10168 c0 -13 9 -93 21 -178 11 -85 23 -227 26 -315 6 -198 -5
-259 -81 -430 -63 -143 -96 -242 -96 -294 0 -59 -13 -67 -45 -29 -38 45 -62
104 -86 210 -10 49 -26 105 -34 124 -13 31 -16 33 -38 23 -18 -8 -27 -22 -31
-52 l-7 -40 -25 24 c-32 30 -90 150 -140 292 -71 199 -124 198 -124 -2 0 -141
40 -269 116 -372 76 -104 93 -205 74 -444 -13 -173 -40 -339 -76 -475 -26
-101 -77 -220 -93 -220 -12 0 -42 93 -77 235 -42 177 -79 234 -133 206 -19
-11 -36 -56 -68 -181 l-9 -35 -35 76 c-53 110 -99 159 -171 180 -39 11 -68
-17 -68 -65 0 -79 135 -292 321 -508 57 -66 119 -138 138 -160 l34 -39 -43
-137 c-97 -310 -224 -684 -266 -782 -45 -109 -92 -179 -111 -167 -29 18 -71
196 -102 437 -95 730 -66 1351 86 1875 47 163 81 249 178 455 124 262 197 492
181 573 -13 65 -60 85 -110 46 -39 -31 -54 -66 -69 -170 -15 -99 -65 -246
-125 -364 -48 -97 -119 -205 -134 -205 -28 0 -100 132 -230 420 -81 181 -108
221 -136 198 -12 -10 -13 -29 -8 -98 12 -169 60 -338 141 -500 69 -137 85
-200 85 -341 0 -286 -78 -1020 -112 -1054 -6 -7 -23 5 -49 35 -80 91 -208 248
-293 362 -48 65 -96 120 -107 123 -26 8 -78 -24 -86 -53 -9 -38 13 -92 66
-162 27 -36 48 -66 46 -68 -7 -7 -52 22 -143 92 -181 138 -202 153 -242 171
-39 17 -41 17 -60 0 -66 -60 18 -158 315 -362 307 -213 452 -334 485 -408 75
-163 108 -634 150 -2100 5 -198 12 -429 16 -514 l6 -153 -33 18 c-47 27 -170
145 -254 244 -129 153 -612 808 -663 900 -110 199 -178 574 -212 1170 -30 532
-55 831 -110 1280 -21 179 -51 431 -65 560 -27 245 -50 391 -66 422 -5 10 -21
18 -34 18 -20 0 -26 -7 -36 -42 -6 -24 -13 -49 -15 -57 -4 -11 -8 -9 -20 7
-19 27 -60 29 -74 3 -15 -28 -12 -200 5 -331 29 -220 68 -396 130 -590 19 -58
43 -143 55 -190 23 -98 27 -204 8 -198 -26 9 -98 134 -184 320 -192 417 -407
811 -485 889 -26 26 -65 25 -72 -2 -3 -12 4 -51 15 -88 20 -64 146 -344 193
-428 13 -24 21 -43 19 -43 -3 0 -35 18 -72 40 -78 48 -124 63 -172 58 -31 -3
-35 -7 -38 -34 -2 -24 7 -45 43 -92 76 -101 240 -245 308 -271 48 -19 273
-388 332 -545 50 -133 56 -184 62 -478 4 -201 2 -278 -6 -278 -6 0 -11 3 -11
8 0 11 -142 177 -175 205 -47 38 -69 42 -85 12 -11 -21 -10 -33 14 -97 15 -40
69 -149 121 -243 51 -93 109 -206 128 -250 68 -155 96 -306 64 -349 -12 -17
-18 -17 -51 -6 -68 22 -183 109 -283 214 -204 213 -338 456 -363 658 -12 99
-49 222 -135 449 -103 272 -147 431 -165 599 -16 157 -64 281 -135 350 -28 27
-36 30 -54 21 -30 -16 -30 -53 -5 -234 8 -59 14 -113 12 -119 -2 -6 -51 33
-108 86 -109 101 -178 153 -217 162 -66 17 -71 -37 -11 -127 52 -79 292 -321
334 -338 26 -10 39 -28 74 -102 64 -140 184 -519 163 -519 -10 0 -90 65 -158
130 -146 137 -287 240 -330 240 -27 0 -45 -18 -45 -45 0 -35 46 -89 219 -260
171 -169 279 -293 354 -411 49 -75 92 -172 82 -183 -4 -3 -52 -5 -108 -5 -188
3 -377 53 -497 133 -210 140 -416 387 -536 641 -102 215 -130 260 -165 260
-23 0 -39 -29 -39 -72 0 -39 32 -168 61 -246 10 -29 19 -57 19 -62 0 -5 -48
22 -107 61 -201 132 -273 156 -273 90 0 -54 234 -256 465 -401 111 -69 222
-154 335 -255 156 -139 324 -233 522 -290 68 -20 154 -46 193 -57 65 -19 68
-21 50 -35 -32 -25 -143 -72 -255 -110 -142 -49 -222 -50 -374 -5 -153 45
-216 41 -216 -13 0 -43 98 -93 273 -140 134 -36 232 -34 315 5 97 46 168 63
258 62 153 0 262 -44 454 -183 63 -45 176 -125 250 -177 216 -153 325 -262
436 -441 36 -57 63 -106 60 -108 -2 -2 -98 3 -213 13 -262 22 -585 25 -630 6
-17 -8 -34 -19 -36 -25 -10 -26 14 -59 56 -77 35 -16 185 -48 231 -51 6 0 -29
-21 -79 -46 -122 -62 -155 -88 -155 -123 0 -32 14 -40 75 -40 47 0 133 24 330
94 224 79 426 96 525 46 61 -31 135 -109 277 -292 168 -215 298 -355 437 -472
159 -133 270 -275 366 -466 50 -98 70 -168 51 -179 -44 -28 -346 82 -646 234
-208 106 -345 194 -530 338 -216 170 -293 209 -310 157 -12 -37 28 -86 258
-317 127 -128 228 -235 225 -239 -4 -3 -87 -34 -186 -68 -185 -65 -242 -94
-242 -125 0 -54 97 -53 315 5 118 32 156 37 245 38 121 0 176 -13 442 -103
295 -100 388 -144 480 -230 71 -65 119 -145 187 -311 65 -157 119 -258 153
-283 25 -19 28 -19 52 -3 29 18 34 62 16 125 -16 55 -3 48 24 -13 38 -86 42
-120 17 -152 -30 -39 -27 -92 15 -230 42 -138 48 -204 21 -231 -43 -43 -209
-7 -486 107 -545 224 -1162 658 -1392 979 -126 177 -198 338 -338 758 -54 160
-106 304 -115 318 -22 33 -42 41 -62 24 -32 -26 -4 -166 110 -543 67 -222 94
-331 84 -342 -11 -10 -147 60 -263 137 -127 83 -244 196 -326 314 -31 44 -111
175 -179 290 -329 564 -624 943 -820 1055 -220 125 -411 313 -490 482 -23 49
-32 87 -40 166 -14 150 -44 203 -106 188 -35 -9 -53 -45 -62 -119 -14 -111 4
-219 55 -345 15 -34 23 -65 19 -69 -3 -4 -106 3 -229 15 -269 27 -409 29 -431
6 -22 -21 -20 -29 10 -53 48 -38 188 -69 495 -111 185 -25 265 -48 384 -107
285 -143 540 -384 761 -720 87 -133 242 -400 308 -531 86 -171 165 -376 151
-390 -16 -16 -285 111 -734 348 -189 99 -297 165 -393 241 -215 169 -381 364
-567 664 -146 236 -190 285 -226 255 -20 -17 -19 -72 5 -154 l19 -68 -47 6
c-26 3 -108 25 -182 47 -177 55 -207 60 -222 42 -35 -43 52 -116 212 -179 190
-74 246 -101 319 -149 141 -93 248 -212 211 -235 -31 -20 -204 -71 -322 -94
-155 -31 -261 -40 -316 -28 -55 13 -93 2 -112 -30 -21 -38 -2 -74 47 -87 90
-25 329 -5 566 48 145 33 208 38 253 21 15 -6 62 -37 104 -69 89 -67 231 -154
445 -271 222 -122 335 -200 335 -231 0 -16 -72 -29 -250 -44 -334 -28 -639
-72 -777 -111 -91 -26 -120 -65 -75 -102 27 -21 228 -15 417 13 269 40 436 55
641 55 313 0 523 -29 772 -106 170 -53 246 -74 270 -74 47 0 256 -123 380
-223 49 -40 59 -53 47 -59 -8 -5 -99 -13 -203 -18 -234 -12 -315 -25 -350 -55
-26 -23 -27 -23 -8 -44 29 -32 76 -41 276 -51 309 -17 354 -28 510 -128 208
-134 528 -406 497 -424 -32 -17 -216 -30 -352 -23 -278 13 -510 49 -660 102
-221 79 -380 194 -755 548 -128 121 -249 218 -286 229 -30 9 -58 -16 -51 -46
10 -38 121 -163 389 -435 136 -138 248 -259 248 -267 0 -22 -24 -20 -160 8
-317 68 -770 246 -1032 407 -115 71 -215 119 -245 119 -24 0 -53 -24 -53 -44
0 -27 60 -93 148 -166 50 -41 88 -76 83 -78 -38 -13 -799 285 -1036 406 -185
94 -199 100 -231 107 -22 4 -37 1 -55 -14 -23 -19 -23 -21 -9 -48 20 -36 91
-89 199 -148 112 -62 211 -125 211 -135 0 -4 -8 -10 -17 -13 -78 -25 -351
-130 -370 -142 -16 -11 -23 -24 -21 -38 3 -21 8 -22 93 -21 53 1 158 14 255
32 228 43 262 45 376 32 199 -23 442 -88 739 -198 226 -84 243 -91 225 -102
-24 -14 -211 -46 -515 -91 -466 -67 -662 -112 -698 -160 -15 -21 -17 -31 -8
-47 20 -38 67 -37 294 7 291 56 493 81 653 81 114 0 136 -2 141 -16 9 -23 -18
-72 -76 -142 -65 -78 -78 -108 -55 -133 14 -15 32 -19 91 -19 142 0 187 42
292 272 48 105 77 138 124 138 19 0 92 -9 163 -20 71 -11 261 -35 423 -55 295
-35 487 -71 460 -85 -8 -4 -35 -10 -61 -13 -66 -9 -148 -44 -328 -142 -190
-103 -289 -141 -423 -160 -208 -29 -454 -127 -552 -219 -29 -28 -35 -40 -35
-74 0 -32 5 -44 21 -53 32 -16 66 -6 217 65 192 90 291 122 535 171 193 39
309 80 397 140 132 91 221 127 392 160 193 37 339 46 813 52 632 7 678 0 1020
-149 492 -216 730 -373 828 -550 90 -160 111 -283 111 -653 1 -599 -64 -763
-324 -825 -66 -16 -193 -16 -235 0 -41 15 -85 59 -85 84 0 43 -23 100 -50 128
-41 40 -106 40 -152 -1 -31 -28 -33 -33 -36 -113 -1 -45 -5 -93 -8 -105 -10
-48 -160 -96 -334 -108 -118 -7 -165 -19 -174 -42 -10 -25 19 -59 71 -84 64
-32 170 -30 314 4 223 54 419 70 694 57 96 -5 162 28 254 126 146 156 192 348
192 789 0 493 -65 797 -221 1025 -55 80 -88 107 -160 131 -83 27 -215 83 -359
153 l-114 55 171 3 171 3 29 28 c33 32 47 77 58 179 4 38 10 68 13 68 3 0 38
-37 77 -83 136 -157 214 -287 214 -358 0 -53 37 -103 79 -107 43 -4 67 18 86
82 20 64 42 261 50 436 10 217 39 457 65 524 12 33 18 -50 30 -436 15 -484 36
-761 63 -813 23 -46 64 -46 177 0 47 19 89 35 94 35 15 0 -25 -40 -82 -82 -62
-46 -103 -106 -132 -192 -47 -144 -49 -246 -4 -312 25 -36 25 -37 5 -50 -48
-34 -111 -189 -111 -274 0 -74 57 -104 108 -57 l25 22 -7 -140 c-7 -151 4
-294 30 -385 12 -41 28 -67 64 -102 52 -52 79 -59 110 -28 34 34 47 31 345
-100 66 -28 156 -61 200 -71 44 -11 112 -26 150 -36 39 -9 169 -46 290 -84
379 -116 478 -139 526 -121 37 15 43 49 15 77 -35 35 -105 67 -261 121 -170
59 -202 83 -214 162 -12 78 -42 105 -123 110 -54 3 -68 0 -98 -20 -19 -13 -39
-33 -45 -44 -12 -25 -30 -21 -114 30 -88 53 -154 71 -246 67 -44 -1 -98 -3
-121 -4 -96 -3 -175 104 -214 293 -30 143 -45 451 -32 651 16 239 46 333 160
509 176 273 404 379 927 434 388 41 722 60 823 47 79 -10 336 -23 827 -41 736
-27 1047 -56 1130 -104 61 -36 220 -83 425 -127 102 -22 243 -53 314 -70 138
-33 188 -33 206 1 41 76 -38 114 -420 201 -214 49 -370 94 -370 108 0 12 107
72 187 104 62 24 94 31 153 31 71 1 341 -38 945 -134 138 -22 261 -40 275 -40
52 0 66 42 27 78 -52 49 -219 88 -542 127 -291 35 -395 55 -395 73 0 11 59 46
222 133 568 303 1268 810 1268 919 0 9 -9 25 -20 35 -39 35 -136 -7 -275 -119
-108 -87 -193 -145 -385 -260 -160 -97 -466 -253 -476 -244 -9 10 61 109 173
243 216 262 250 320 209 355 -37 30 -140 -63 -581 -520 -261 -271 -309 -295
-889 -441 -223 -56 -405 -92 -416 -81 -3 2 43 50 102 106 127 121 191 194 224
258 28 55 30 71 8 92 -47 48 -134 -5 -311 -187 -57 -58 -129 -121 -160 -140
-120 -73 -281 -107 -510 -107 -119 0 -555 27 -617 38 l-40 7 145 126 c291 254
679 567 783 634 130 83 294 147 538 210 188 49 321 94 453 152 151 67 345 120
620 168 327 57 355 65 355 97 0 28 -33 35 -194 45 l-148 8 113 95 c234 197
421 323 569 386 148 62 220 108 220 140 0 22 128 130 268 225 174 119 212 153
212 190 0 57 -63 64 -159 19 -85 -40 -172 -103 -301 -216 -182 -159 -318 -244
-391 -244 -55 0 -26 94 76 250 87 134 120 210 107 249 -10 32 -42 38 -76 16
-35 -23 -108 -124 -206 -285 -135 -221 -220 -339 -313 -436 -171 -180 -325
-272 -662 -399 -142 -54 -418 -146 -422 -141 -6 6 40 119 142 351 110 249 185
460 185 523 0 48 29 142 62 199 30 52 146 207 205 274 26 30 113 126 193 214
272 299 350 399 350 446 0 25 -4 29 -26 29 -40 0 -84 -39 -411 -362 -165 -164
-305 -298 -310 -298 -13 0 -1 83 26 188 29 113 98 305 230 640 195 498 278
748 288 868 5 65 4 72 -16 86 -48 34 -94 -15 -130 -137 -56 -185 -139 -428
-208 -600 -91 -229 -131 -311 -144 -298 -6 6 -17 48 -25 94 -13 68 -14 132 -9
336 5 221 4 255 -10 283 -14 26 -21 31 -47 28 -19 -2 -38 -13 -50 -28 -37 -50
-42 -140 -28 -539 19 -580 -4 -885 -95 -1266 -60 -249 -129 -435 -246 -666
-146 -287 -210 -350 -674 -659 -110 -73 -281 -190 -380 -258 -437 -304 -504
-350 -575 -394 -41 -25 -95 -55 -118 -68 l-44 -21 7 43 c11 68 63 219 99 284
45 83 93 106 296 139 307 51 420 84 420 124 0 36 -34 44 -149 37 -258 -15
-371 -18 -371 -9 0 12 136 143 279 268 122 107 228 224 238 264 7 30 -7 55
-36 59 -29 5 -81 -29 -174 -113 -98 -87 -157 -135 -168 -135 -15 0 -10 44 16
152 28 112 34 210 15 233 -18 22 -56 18 -81 -7 -48 -51 -83 -172 -100 -345
-11 -123 -39 -192 -105 -263 -81 -87 -189 -277 -294 -515 -176 -397 -176 -397
-680 -440 -389 -33 -570 -80 -851 -221 -140 -69 -299 -137 -306 -130 -4 3 41
54 98 113 143 147 266 303 451 573 177 259 298 467 313 540 29 140 403 675
639 914 97 98 204 165 481 301 207 101 377 171 498 205 70 19 86 20 146 10 37
-6 103 -27 147 -46 44 -20 104 -38 135 -41 49 -5 59 -3 78 16 29 29 26 54 -9
94 -52 59 -194 106 -330 108 -111 1 -117 12 -30 52 41 19 129 51 195 71 146
44 234 78 300 114 39 21 51 33 53 55 8 66 -46 73 -220 28 -249 -64 -587 -209
-713 -305 -97 -74 -433 -214 -579 -241 -35 -7 -39 -6 -32 11 33 85 387 511
651 782 139 143 549 512 742 669 94 76 237 166 403 254 224 117 290 164 290
204 0 60 -113 44 -280 -40 -41 -20 -92 -44 -113 -51 l-39 -14 6 26 c4 15 43
105 86 200 43 95 89 206 101 246 27 90 78 160 260 353 183 194 236 267 225
311 -5 18 -13 24 -34 24 -39 0 -73 -24 -195 -136 -135 -123 -218 -188 -227
-175 -3 6 -2 39 2 73 17 147 19 273 6 298 -28 52 -106 31 -134 -36 -9 -22 -20
-121 -29 -282 -16 -268 -25 -333 -57 -432 -63 -195 -200 -383 -464 -640 -180
-175 -415 -370 -445 -370 -16 0 -9 106 16 242 54 293 172 692 242 818 105 190
124 247 93 285 -30 36 -79 14 -145 -65 -19 -23 -35 -37 -35 -31 0 19 21 110
140 626 175 755 201 906 166 960 -20 30 -45 32 -78 5 -37 -28 -58 -91 -69
-200 -13 -126 -39 -254 -89 -430 -42 -148 -109 -330 -121 -330 -9 0 -17 90
-29 325 -11 207 -25 275 -66 301 -28 19 -59 11 -78 -19 -27 -43 -27 -119 0
-367 32 -295 44 -759 25 -973 -46 -511 -192 -1161 -319 -1414 -50 -99 -95
-159 -266 -358 -242 -281 -451 -572 -672 -932 l-99 -162 -3 162 c-6 284 27
492 123 802 95 303 114 415 75 450 -19 17 -21 17 -53 -17 -32 -34 -42 -58
-144 -323 -33 -85 -90 -185 -105 -185 -7 0 -9 8 -26 137 -11 83 -40 136 -84
159 -24 12 -36 13 -54 5 -33 -15 -32 -60 5 -242 69 -335 97 -746 71 -1038 -31
-342 -111 -517 -463 -1011 -264 -370 -418 -532 -476 -500 -56 30 -75 294 -51
735 31 569 104 940 251 1270 96 213 191 354 429 630 80 94 222 262 316 375 94
113 234 272 312 353 170 177 284 342 397 572 85 174 116 272 139 442 9 67 43
226 75 355 94 370 135 596 171 943 46 441 70 592 109 693 25 63 26 95 5 116
-42 43 -126 0 -170 -85 -16 -33 -29 -47 -37 -42 -7 4 -30 20 -51 35 -72 52
-116 31 -116 -55 0 -55 25 -122 54 -146 55 -46 74 -199 57 -463 -21 -324 -46
-471 -136 -818 -66 -252 -92 -363 -124 -529 -23 -113 -42 -166 -121 -321 -143
-279 -360 -554 -403 -511 -32 32 -1 196 60 312 37 72 67 108 156 185 56 48 58
51 46 77 -7 15 -15 27 -18 27 -3 0 -44 -12 -90 -25 -47 -14 -91 -25 -98 -25
-32 0 -36 71 -42 685 -6 597 -6 611 -28 657 -36 78 -88 85 -113 16 -20 -59
-30 -266 -30 -648 1 -453 -7 -512 -69 -561 -49 -39 -108 -126 -178 -263 -72
-143 -121 -223 -149 -247 -11 -8 -46 -23 -79 -33 -33 -10 -130 -51 -215 -90
-192 -90 -248 -112 -260 -100 -16 17 -58 488 -72 814 l-2 55 199 240 c353 423
463 583 435 635 -12 23 -49 35 -79 25 -12 -3 -47 -39 -78 -78 -78 -100 -162
-194 -342 -385 -110 -117 -156 -160 -162 -150 -8 14 -53 398 -64 546 -8 101 7
181 42 223 37 43 119 82 300 140 537 172 755 262 847 347 58 55 54 112 -8 112
-42 0 -99 -25 -229 -101 -113 -66 -231 -109 -250 -90 -19 19 23 88 123 200
139 157 168 211 135 245 -19 19 -67 21 -98 4 -80 -42 -156 -132 -217 -258 -68
-138 -133 -203 -270 -271 -112 -55 -311 -105 -395 -97 -38 3 -41 5 -58 53 -13
37 -16 74 -14 145 2 83 6 102 32 148 56 103 185 216 485 422 318 219 495 361
506 406 13 50 -41 71 -94 37 -15 -10 -55 -41 -90 -70 -35 -29 -67 -53 -73 -53
-13 0 -11 49 7 175 19 131 12 168 -33 163 -41 -5 -67 -53 -118 -212 -67 -209
-115 -280 -250 -368 -73 -48 -204 -112 -212 -104 -10 9 43 146 128 334 45 97
92 206 105 241 23 59 24 65 9 88 l-16 24 -28 -20 c-16 -12 -43 -38 -61 -58
-18 -21 -55 -62 -83 -91 -50 -53 -51 -53 -63 -30 -6 13 -35 93 -64 178 -29 85
-57 161 -63 168 -5 6 -20 12 -33 12 -18 0 -24 -5 -24 -22z m-229 -1607 c204
-1141 225 -1310 161 -1319 -45 -7 -333 312 -395 437 -49 101 -45 154 31 376
78 226 110 364 122 532 5 72 13 139 17 149 11 30 42 -54 64 -175z m-261 -1161
c46 -63 132 -179 193 -257 124 -160 143 -191 186 -300 60 -154 99 -359 121
-638 25 -321 1 -1318 -32 -1352 -21 -20 -95 21 -215 122 -264 221 -461 491
-540 742 -25 79 -28 102 -28 233 0 143 0 146 38 250 136 370 176 660 95 686
-66 20 -102 -40 -117 -196 -14 -148 -65 -295 -131 -380 l-20 -25 0 27 c0 14
15 86 34 160 44 174 317 1049 327 1046 4 -2 44 -55 89 -118z m1710 -410 c0
-21 -29 -65 -61 -95 -22 -21 -30 -25 -26 -12 4 10 7 22 7 26 0 5 14 27 30 49
29 40 50 53 50 32z m-1121 -161 c10 -63 22 -150 25 -194 4 -65 1 -52 -18 65
-13 80 -28 169 -34 198 -14 63 -15 83 -2 61 5 -8 18 -67 29 -130z m1131 -184
c0 -49 -34 -227 -58 -310 -39 -130 -196 -362 -421 -620 -110 -126 -350 -375
-362 -375 -19 0 -44 184 -55 410 -17 333 44 455 319 638 203 137 515 311 555
312 20 0 22 -5 22 -55z m-2380 -209 c11 -35 0 -86 -19 -86 -14 0 -31 34 -31
60 0 25 17 60 30 60 4 0 13 -15 20 -34z m133 -453 c17 -262 188 -582 497 -933
41 -47 159 -178 262 -292 l188 -206 0 -254 c0 -560 -47 -1072 -132 -1430 -16
-71 -33 -128 -37 -128 -26 0 -299 521 -459 877 -199 442 -304 751 -351 1033
-38 226 -45 361 -46 810 0 375 3 445 17 509 16 69 31 101 48 101 4 0 10 -39
13 -87z m3122 -662 c-14 -29 -35 -49 -35 -36 0 9 40 65 46 65 2 0 -2 -13 -11
-29z m-1890 -188 c15 -119 50 -161 113 -134 l27 11 -28 -25 c-67 -60 -147 3
-147 117 0 50 9 88 20 88 4 0 11 -26 15 -57z m-1672 -419 c39 -26 82 -50 95
-53 61 -17 181 -299 337 -799 37 -117 65 -215 63 -218 -13 -12 -71 125 -88
208 -39 184 -125 449 -182 563 -71 141 -122 199 -293 328 -55 41 -125 101
-155 132 -50 52 -45 50 49 -29 57 -47 136 -107 174 -132z m3237 49 c-25 -76
-72 -156 -128 -216 -71 -76 -101 -124 -116 -185 -10 -37 -22 -54 -55 -80 -24
-18 -46 -31 -48 -28 -5 4 168 283 285 459 36 54 67 96 69 93 3 -3 -1 -22 -7
-43z m-1684 -483 c-7 -320 -14 -450 -26 -450 -25 0 -24 532 2 735 12 98 12 99
21 55 5 -25 6 -178 3 -340z m1282 -179 c-10 -28 -47 -71 -60 -71 -5 0 6 28 23
62 21 42 33 57 39 48 5 -7 4 -25 -2 -39z m-3862 -759 c-4 -3 -14 2 -24 12 -16
18 -16 18 6 6 13 -6 21 -14 18 -18z m5434 -166 c0 -2 -39 -37 -87 -78 -187
-159 -421 -318 -470 -318 -31 0 -83 -47 -83 -76 0 -27 -26 -44 -67 -44 -43 0
-57 13 -44 38 15 28 73 66 201 134 107 56 211 121 423 267 114 78 127 86 127
77z m-2306 -187 c-9 -25 -35 -68 -59 -96 -47 -53 -183 -169 -190 -161 -3 2 21
36 52 74 72 88 205 235 209 232 1 -2 -4 -24 -12 -49z m-2539 -93 c163 -109
299 -210 286 -214 -13 -4 -58 26 -121 81 -25 22 -65 48 -90 60 -25 11 -56 25
-70 31 -24 11 -154 130 -135 124 6 -2 64 -39 130 -82z m3570 -255 c-20 -19
-171 -42 -255 -39 l-85 3 75 14 c153 28 282 39 265 22z m882 -65 c15 -13 25
-28 20 -32 -8 -9 -59 26 -65 44 -6 19 15 14 45 -12z m1502 -51 c9 -9 -38 -45
-58 -45 -10 0 -28 11 -40 24 l-23 24 24 5 c27 6 88 1 97 -8z"/>
</g>
</svg>
